<mxfile host="app.diagrams.net" agent="Mozilla/5.0 (Windows NT 10.0; Win64; x64) AppleWebKit/537.36 (KHTML, like Gecko) Chrome/131.0.0.0 Safari/537.36" version="24.8.6">
  <diagram name="หน้า-1" id="RorRTZwa7mBXUoHyGx-Q">
    <mxGraphModel dx="1050" dy="530" grid="1" gridSize="10" guides="1" tooltips="1" connect="1" arrows="1" fold="1" page="1" pageScale="1" pageWidth="827" pageHeight="1169" math="0" shadow="0">
      <root>
        <mxCell id="0" />
        <mxCell id="1" parent="0" />
        <mxCell id="raE_AVmkTkN_qTRIdnkz-3" value="" style="edgeStyle=orthogonalEdgeStyle;rounded=0;orthogonalLoop=1;jettySize=auto;html=1;" edge="1" parent="1" source="raE_AVmkTkN_qTRIdnkz-1" target="raE_AVmkTkN_qTRIdnkz-2">
          <mxGeometry relative="1" as="geometry" />
        </mxCell>
        <mxCell id="raE_AVmkTkN_qTRIdnkz-1" value="start" style="ellipse;whiteSpace=wrap;html=1;" vertex="1" parent="1">
          <mxGeometry x="354" y="20" width="120" height="80" as="geometry" />
        </mxCell>
        <mxCell id="raE_AVmkTkN_qTRIdnkz-5" value="" style="edgeStyle=orthogonalEdgeStyle;rounded=0;orthogonalLoop=1;jettySize=auto;html=1;" edge="1" parent="1" source="raE_AVmkTkN_qTRIdnkz-2" target="raE_AVmkTkN_qTRIdnkz-4">
          <mxGeometry relative="1" as="geometry" />
        </mxCell>
        <mxCell id="raE_AVmkTkN_qTRIdnkz-2" value="Input H" style="shape=parallelogram;perimeter=parallelogramPerimeter;whiteSpace=wrap;html=1;fixedSize=1;" vertex="1" parent="1">
          <mxGeometry x="354" y="190" width="120" height="60" as="geometry" />
        </mxCell>
        <mxCell id="raE_AVmkTkN_qTRIdnkz-7" value="" style="edgeStyle=orthogonalEdgeStyle;rounded=0;orthogonalLoop=1;jettySize=auto;html=1;" edge="1" parent="1" source="raE_AVmkTkN_qTRIdnkz-4" target="raE_AVmkTkN_qTRIdnkz-6">
          <mxGeometry relative="1" as="geometry" />
        </mxCell>
        <mxCell id="raE_AVmkTkN_qTRIdnkz-4" value="Input W" style="shape=parallelogram;perimeter=parallelogramPerimeter;whiteSpace=wrap;html=1;fixedSize=1;" vertex="1" parent="1">
          <mxGeometry x="354" y="330" width="120" height="60" as="geometry" />
        </mxCell>
        <mxCell id="raE_AVmkTkN_qTRIdnkz-9" value="" style="edgeStyle=orthogonalEdgeStyle;rounded=0;orthogonalLoop=1;jettySize=auto;html=1;" edge="1" parent="1" source="raE_AVmkTkN_qTRIdnkz-6" target="raE_AVmkTkN_qTRIdnkz-8">
          <mxGeometry relative="1" as="geometry" />
        </mxCell>
        <mxCell id="raE_AVmkTkN_qTRIdnkz-6" value="( H x W ) / 2" style="whiteSpace=wrap;html=1;" vertex="1" parent="1">
          <mxGeometry x="354" y="470" width="120" height="60" as="geometry" />
        </mxCell>
        <mxCell id="raE_AVmkTkN_qTRIdnkz-11" value="" style="edgeStyle=orthogonalEdgeStyle;rounded=0;orthogonalLoop=1;jettySize=auto;html=1;" edge="1" parent="1" source="raE_AVmkTkN_qTRIdnkz-8" target="raE_AVmkTkN_qTRIdnkz-10">
          <mxGeometry relative="1" as="geometry" />
        </mxCell>
        <mxCell id="raE_AVmkTkN_qTRIdnkz-8" value="Output result" style="shape=parallelogram;perimeter=parallelogramPerimeter;whiteSpace=wrap;html=1;fixedSize=1;" vertex="1" parent="1">
          <mxGeometry x="354" y="610" width="120" height="60" as="geometry" />
        </mxCell>
        <mxCell id="raE_AVmkTkN_qTRIdnkz-10" value="end" style="ellipse;whiteSpace=wrap;html=1;" vertex="1" parent="1">
          <mxGeometry x="354" y="750" width="120" height="80" as="geometry" />
        </mxCell>
      </root>
    </mxGraphModel>
  </diagram>
</mxfile>
